<svg width="1280" height="720" xmlns="http://www.w3.org/2000/svg" xmlns:xlink="http://www.w3.org/1999/xlink" overflow="hidden"><g><rect x="0" y="0" width="1280" height="720" fill="#FFFFFF"/><path d="M64.5001 88.0001C64.5001 67.8417 104.794 51.5001 154.5 51.5001 204.206 51.5001 244.5 67.8417 244.5 88.0001 244.5 108.158 204.206 124.5 154.5 124.5 104.794 124.5 64.5001 108.158 64.5001 88.0001Z" stroke="#000000" stroke-linejoin="round" stroke-miterlimit="10" fill="none" fill-rule="evenodd"/><text font-family="Aptos,Aptos_MSFontService,sans-serif" font-weight="400" font-size="24" transform="translate(113.587 95)">Usuario</text><path d="M72.5001 221.167C72.5001 215.276 77.2757 210.5 83.1669 210.5L225.833 210.5C231.724 210.5 236.5 215.276 236.5 221.167L236.5 263.833C236.5 269.724 231.724 274.5 225.833 274.5L83.1669 274.5C77.2757 274.5 72.5001 269.724 72.5001 263.833Z" stroke="#000000" stroke-width="0.666667" stroke-miterlimit="8" fill="#FF99FF" fill-rule="evenodd"/><text font-family="Aptos,Aptos_MSFontService,sans-serif" font-weight="400" font-size="24" transform="translate(115.99 250)">SLICER</text><path d="M474.5 110.167C474.5 104.276 479.276 99.5001 485.167 99.5001L628.833 99.5001C634.724 99.5001 639.5 104.276 639.5 110.167L639.5 152.833C639.5 158.724 634.724 163.5 628.833 163.5L485.167 163.5C479.276 163.5 474.5 158.724 474.5 152.833Z" stroke="#000000" stroke-width="0.666667" stroke-miterlimit="8" fill="#FFFF47" fill-rule="evenodd"/><text font-family="Aptos,Aptos_MSFontService,sans-serif" font-weight="400" font-size="24" transform="translate(501.334 139)">ROBOT UR</text><path d="M363.5 278.334C363.5 270.141 370.141 263.5 378.334 263.5L576.666 263.5C584.859 263.5 591.5 270.141 591.5 278.334L591.5 337.666C591.5 345.859 584.859 352.5 576.666 352.5L378.334 352.5C370.141 352.5 363.5 345.859 363.5 337.666Z" stroke="#000000" stroke-width="0.666667" stroke-miterlimit="8" fill="#FF3F3F" fill-rule="evenodd"/><text font-family="Aptos,Aptos_MSFontService,sans-serif" font-weight="400" font-size="37" transform="translate(366.491 319)">ORDENADOR</text><path d="M291.5 114.167C291.5 108.276 296.276 103.5 302.167 103.5L445.833 103.5C451.724 103.5 456.5 108.276 456.5 114.167L456.5 156.833C456.5 162.724 451.724 167.5 445.833 167.5L302.167 167.5C296.276 167.5 291.5 162.724 291.5 156.833Z" stroke="#000000" stroke-width="0.666667" stroke-miterlimit="8" fill="#FFFF47" fill-rule="evenodd"/><text font-family="Aptos,Aptos_MSFontService,sans-serif" font-weight="400" font-size="24" transform="translate(298.939 143)">CALIBRACIÓN</text><path d="M659.5 111.167C659.5 105.276 664.276 100.5 670.167 100.5L833.833 100.5C839.724 100.5 844.5 105.276 844.5 111.167L844.5 153.833C844.5 159.724 839.724 164.5 833.833 164.5L670.167 164.5C664.276 164.5 659.5 159.724 659.5 153.833Z" stroke="#000000" stroke-width="0.666667" stroke-miterlimit="8" fill="#FFFF47" fill-rule="evenodd"/><text font-family="Aptos,Aptos_MSFontService,sans-serif" font-weight="400" font-size="24" transform="translate(669.107 140)">SENSOR LÁSER</text><path d="M642.5 235.167C642.5 230.933 645.933 227.5 650.167 227.5L862.833 227.5C867.068 227.5 870.5 230.933 870.5 235.167L870.5 265.833C870.5 270.067 867.068 273.5 862.833 273.5L650.167 273.5C645.933 273.5 642.5 270.067 642.5 265.833Z" stroke="#000000" stroke-width="0.666667" stroke-miterlimit="8" fill="#00FF99" fill-rule="evenodd"/><text font-family="Aptos,Aptos_MSFontService,sans-serif" font-weight="400" font-size="24" transform="translate(658.19 258)">CAMA IMPRESIÓN</text><text font-family="Aptos,Aptos_MSFontService,sans-serif" font-weight="400" font-size="19" transform="translate(677.896 296)">Cartucho calefactor</text><text font-family="Aptos,Aptos_MSFontService,sans-serif" font-weight="400" font-size="19" transform="translate(677.896 341)">Termopar</text><text font-family="Wingdings,Wingdings_MSFontService,sans-serif" font-weight="400" font-size="19" transform="translate(758.236 341)"></text><text font-family="Aptos,Aptos_MSFontService,sans-serif" font-weight="400" font-size="19" transform="translate(780.402 341)">Driver</text><path d="M668.5 272.5 668.5 340.21" stroke="#000000" stroke-width="0.666667" stroke-miterlimit="8" fill="none" fill-rule="evenodd"/><path d="M0 0 8 0.000104987" stroke="#000000" stroke-width="0.666667" stroke-miterlimit="8" fill="none" fill-rule="evenodd" transform="matrix(-1 0 0 1 676.5 336.5)"/><path d="M0 0 8 0.000104987" stroke="#000000" stroke-width="0.666667" stroke-miterlimit="8" fill="none" fill-rule="evenodd" transform="matrix(-1 0 0 1 676.5 290.5)"/><path d="M648.5 442.167C648.5 437.933 651.933 434.5 656.167 434.5L868.833 434.5C873.068 434.5 876.5 437.933 876.5 442.167L876.5 472.833C876.5 477.068 873.068 480.5 868.833 480.5L656.167 480.5C651.933 480.5 648.5 477.068 648.5 472.833Z" stroke="#000000" stroke-width="0.666667" stroke-miterlimit="8" fill="#00FF99" fill-rule="evenodd"/><text font-family="Aptos,Aptos_MSFontService,sans-serif" font-weight="400" font-size="24" transform="translate(660.326 466)">UNIDAD CONTROL</text><text font-family="Aptos,Aptos_MSFontService,sans-serif" font-weight="400" font-size="19" transform="translate(683.822 503)">Relé</text><text font-family="Aptos,Aptos_MSFontService,sans-serif" font-weight="400" font-size="19" transform="translate(683.822 548)">Arduino</text><text font-family="Wingdings,Wingdings_MSFontService,sans-serif" font-weight="400" font-size="19" transform="translate(750.735 548)"></text><text font-family="Aptos,Aptos_MSFontService,sans-serif" font-weight="400" font-size="19" transform="translate(772.902 548)">Código</text><path d="M674.5 480.5 674.5 548.21" stroke="#000000" stroke-width="0.666667" stroke-miterlimit="8" fill="none" fill-rule="evenodd"/><path d="M0 0 8 0.000104987" stroke="#000000" stroke-width="0.666667" stroke-miterlimit="8" fill="none" fill-rule="evenodd" transform="matrix(-1 0 0 1 682.5 544.5)"/><path d="M0 0 8 0.000104987" stroke="#000000" stroke-width="0.666667" stroke-miterlimit="8" fill="none" fill-rule="evenodd" transform="matrix(-1 0 0 1 682.5 497.5)"/><path d="M329.5 480C329.5 475.858 332.858 472.5 337 472.5L549 472.5C553.142 472.5 556.5 475.858 556.5 480L556.5 510C556.5 514.142 553.142 517.5 549 517.5L337 517.5C332.858 517.5 329.5 514.142 329.5 510Z" stroke="#000000" stroke-width="0.666667" stroke-miterlimit="8" fill="#66FF33" fill-rule="evenodd"/><text font-family="Aptos,Aptos_MSFontService,sans-serif" font-weight="400" font-size="24" transform="translate(382.454 503)">EXTRUSOR</text><text font-family="Aptos,Aptos_MSFontService,sans-serif" font-weight="400" font-size="19" transform="translate(364.563 541)">Cartucho calefactor</text><text font-family="Aptos,Aptos_MSFontService,sans-serif" font-weight="400" font-size="19" transform="translate(364.563 564)">Termopar</text><text font-family="Aptos,Aptos_MSFontService,sans-serif" font-weight="400" font-size="19" transform="translate(364.563 586)">Alimentado</text><path d="M355.5 517.5 355.5 585.21" stroke="#000000" stroke-width="0.666667" stroke-miterlimit="8" fill="none" fill-rule="evenodd"/><path d="M0 0 8 0.000104987" stroke="#000000" stroke-width="0.666667" stroke-miterlimit="8" fill="none" fill-rule="evenodd" transform="matrix(-1 0 0 1 363.5 581.5)"/><path d="M0 0 8 0.000104987" stroke="#000000" stroke-width="0.666667" stroke-miterlimit="8" fill="none" fill-rule="evenodd" transform="matrix(-1 0 0 1 363.5 535.5)"/><path d="M0 0 8 0.000104987" stroke="#000000" stroke-width="0.666667" stroke-miterlimit="8" fill="none" fill-rule="evenodd" transform="matrix(-1 0 0 1 363.5 557.5)"/><path d="M155 124 155 203.929 153 203.929 153 124ZM158 202.595 154 210.595 150 202.595Z" fill="#156082"/><path d="M0-1 36.5922-1 36.5922 202.222 34.5922 202.222 34.5922 0 35.5922 1 0 1ZM39.5922 200.889 35.5922 208.889 31.5922 200.889Z" fill="#156082" transform="matrix(1.83697e-16 1 1 -1.83697e-16 154 274)"/><path d="M399 167 399 254.744 397 254.744 397 167ZM402 253.41 398 261.41 394 253.41Z" fill="#156082"/><path d="M1-1.05397e-06 1.0001 92.9444-0.999902 92.9444-1 1.05397e-06ZM4.0001 91.611 0.000104987 99.611-3.9999 91.611Z" fill="#156082" transform="matrix(1 0 0 -1 496 263.611)"/><path d="M647.87 458.629 511.935 458.629 511.946 359.666 513.946 359.666 513.935 457.629 512.935 456.629 647.87 456.629ZM508.935 360.967 513 353 516.935 361.032Z" fill="#156082"/><path d="M1-1.22376e-06 1.0001 79.1238-0.999903 79.1238-1 1.22376e-06ZM4.00009 77.7904 0.000104987 85.7904-3.9999 77.7905Z" fill="#FF0000" transform="matrix(1 0 0 -1 730 433.79)"/><path d="M699 348 699 428.927 697 428.927 697 348ZM702 427.594 698 435.594 694 427.594Z" fill="#00B050"/><path d="M658.314 151 658.314 149.826 659.314 150.826 658.489 150.826 658.489 148.826 660.314 148.826 660.314 151ZM656.489 150.826 654.489 150.826 654.489 148.826 656.489 148.826ZM652.489 150.826 650.489 150.826 650.489 148.826 652.489 148.826ZM648.489 150.826 646.489 150.826 646.489 148.826 648.489 148.826ZM644.489 150.826 642.489 150.826 642.489 148.826 644.489 148.826ZM640.489 150.826 638.489 150.826 638.489 148.826 640.489 148.826ZM636.489 150.826 634.489 150.826 634.489 148.826 636.489 148.826ZM632.489 150.826 630.489 150.826 630.489 148.826 632.489 148.826ZM628.489 150.826 626.489 150.826 626.489 148.826 628.489 148.826ZM624.489 150.826 622.489 150.826 622.489 148.826 624.489 148.826ZM620.489 150.826 618.489 150.826 618.489 148.826 620.489 148.826ZM616.489 150.826 614.489 150.826 614.489 148.826 616.489 148.826ZM612.489 150.826 610.489 150.826 610.489 148.826 612.489 148.826ZM608.489 150.826 606.489 150.826 606.489 148.826 608.489 148.826ZM604.489 150.826 602.489 150.826 602.489 148.826 604.489 148.826ZM600.489 150.826 598.489 150.826 598.489 148.826 600.489 148.826ZM596.489 150.826 594.489 150.826 594.489 148.826 596.489 148.826ZM592.489 150.826 590.489 150.826 590.489 148.826 592.489 148.826ZM588.489 150.826 586.489 150.826 586.489 148.826 588.489 148.826ZM584.489 150.826 582.489 150.826 582.489 148.826 584.489 148.826ZM580.489 150.826 578.489 150.826 578.489 148.826 580.489 148.826ZM576.489 150.826 574.489 150.826 574.489 148.826 576.489 148.826ZM572.489 150.826 570.489 150.826 570.489 148.826 572.489 148.826ZM568.489 150.826 568 150.826 569 149.826 569 151.337 567 151.337 567 148.826 568.489 148.826ZM569 153.337 569 155.337 567 155.337 567 153.337ZM569 157.337 569 159.337 567 159.337 567 157.337ZM569 161.337 569 163.337 567 163.337 567 161.337ZM569 165.337 569 167.337 567 167.337 567 165.337ZM569 169.337 569 171.337 567 171.337 567 169.337ZM569 173.337 569 175.337 567 175.337 567 173.337ZM569 177.337 569 179.337 567 179.337 567 177.337ZM569 181.337 569 183.337 567 183.337 567 181.337ZM569 185.337 569 187.337 567 187.337 567 185.337ZM569 189.337 569 191.337 567 191.337 567 189.337ZM569 193.337 569 195.337 567 195.337 567 193.337ZM569 197.337 569 199.337 567 199.337 567 197.337ZM569 201.337 569 203.337 567 203.337 567 201.337ZM569 205.337 569 207.337 567 207.337 567 205.337ZM569 209.337 569 211.337 567 211.337 567 209.337ZM569 213.337 569 215.337 567 215.337 567 213.337ZM569 217.337 569 219.337 567 219.337 567 217.337ZM569 221.337 569 223.337 567 223.337 567 221.337ZM569 225.337 569 227.337 567 227.337 567 225.337ZM569 229.337 569 231.337 567 231.337 567 229.337ZM569 233.337 569 235.337 567 235.337 567 233.337ZM569 237.337 569 239.337 567 239.337 567 237.337ZM569 241.337 569 243.337 567 243.337 567 241.337ZM569 245.337 569 247.337 567 247.337 567 245.337ZM569 249.337 569 251.337 567 251.337 567 249.337ZM569 253.337 569 255.337 567 255.337 567 253.337ZM572 255.152 568 263.152 564 255.152Z" fill="#8ED973"/><path d="M409 354 409 465.09 407 465.09 407 354ZM412 463.756 408 471.756 404 463.756Z" fill="#FF0000"/><text fill="#FF0000" font-family="Aptos,Aptos_MSFontService,sans-serif" font-weight="400" font-size="19" transform="translate(543.717 222)">(1)</text><text fill="#0070C0" font-family="Aptos,Aptos_MSFontService,sans-serif" font-weight="400" font-size="19" transform="translate(130.24 171)">(1)</text><text fill="#0070C0" font-family="Aptos,Aptos_MSFontService,sans-serif" font-weight="400" font-size="19" transform="translate(213.203 302)">(2)</text><text fill="#0070C0" font-family="Aptos,Aptos_MSFontService,sans-serif" font-weight="400" font-size="19" transform="translate(374.685 211)">(3)</text><text fill="#0070C0" font-family="Aptos,Aptos_MSFontService,sans-serif" font-weight="400" font-size="16" transform="matrix(-1.83697e-16 -1 1 -1.83697e-16 487.912 236)">(2)*//(3)*</text><text fill="#0070C0" font-family="Aptos,Aptos_MSFontService,sans-serif" font-weight="400" font-size="19" transform="translate(559.872 412)">(4)</text><text fill="#0070C0" font-family="Aptos,Aptos_MSFontService,sans-serif" font-weight="400" font-size="19" transform="translate(517.622 413)">(5)</text><text fill="#00B050" font-family="Aptos,Aptos_MSFontService,sans-serif" font-weight="400" font-size="19" transform="translate(498.407 222)">(1)</text><text fill="#00B050" font-family="Aptos,Aptos_MSFontService,sans-serif" font-weight="400" font-size="19" transform="translate(673.749 388)">(2)</text><text fill="#00B050" font-family="Aptos,Aptos_MSFontService,sans-serif" font-weight="400" font-size="19" transform="translate(573.087 222)">(3)</text><path d="M523 163 523 255.592 521 255.592 521 163ZM526 254.258 522 262.258 518 254.258Z" fill="#00B050"/><path d="M1-1.04718e-06 1.0001 93.5899-0.999902 93.5899-1 1.04718e-06ZM4.0001 92.2565 0.000104987 100.256-3.9999 92.2565Z" fill="#FF0000" transform="matrix(1 0 0 -1 539 263.256)"/><text fill="#FF0000" font-family="Aptos,Aptos_MSFontService,sans-serif" font-weight="400" font-size="19" transform="translate(409.61 411)">(3)</text><text fill="#FF0000" font-family="Aptos,Aptos_MSFontService,sans-serif" font-weight="400" font-size="19" transform="translate(733.797 389)">(2)</text><path d="M558 355 556.115 355 557.115 354 557.115 442.316 556.115 441.316 640.896 441.316 640.896 443.316 555.115 443.316 555.115 353 558 353ZM639.563 438.316 647.563 442.316 639.563 446.316Z" fill="#156082"/><text fill="#0070C0" font-family="Aptos,Aptos_MSFontService,sans-serif" font-weight="700" font-size="21" transform="translate(937.062 123)">FLUJO DE TRABAJO</text><text fill="#0070C0" font-family="Aptos,Aptos_MSFontService,sans-serif" font-weight="400" font-size="21" transform="translate(937.062 148)">(1)</text><text fill="#0070C0" font-family="Aptos,Aptos_MSFontService,sans-serif" font-weight="400" font-size="21" transform="translate(973.062 148)">Fichero CAD</text><text fill="#0070C0" font-family="Aptos,Aptos_MSFontService,sans-serif" font-weight="400" font-size="21" transform="translate(937.062 174)">(2)</text><text fill="#0070C0" font-family="Aptos,Aptos_MSFontService,sans-serif" font-weight="400" font-size="21" transform="translate(973.062 174)">Matriz de puntos en el espacio</text><text fill="#0070C0" font-family="Aptos,Aptos_MSFontService,sans-serif" font-weight="400" font-size="21" transform="translate(937.062 199)">(2)* Trayectoria calculada</text><text fill="#0070C0" font-family="Aptos,Aptos_MSFontService,sans-serif" font-weight="400" font-size="21" transform="translate(937.062 225)">(3) Algoritmo calibración</text><text fill="#0070C0" font-family="Aptos,Aptos_MSFontService,sans-serif" font-weight="400" font-size="21" transform="translate(937.062 251)">(3)* Corrección trayectoria</text><text fill="#0070C0" font-family="Aptos,Aptos_MSFontService,sans-serif" font-weight="400" font-size="21" transform="translate(937.062 276)">(4) Estado UC</text><text fill="#0070C0" font-family="Aptos,Aptos_MSFontService,sans-serif" font-weight="400" font-size="21" transform="translate(937.062 302)">(5) Encender/Apagar UC</text><text fill="#00B050" font-family="Aptos,Aptos_MSFontService,sans-serif" font-weight="700" font-size="21" transform="translate(938.646 367)">SENSORES</text><text fill="#00B050" font-family="Aptos,Aptos_MSFontService,sans-serif" font-weight="400" font-size="21" transform="translate(938.646 392)">(1)</text><text fill="#00B050" font-family="Aptos,Aptos_MSFontService,sans-serif" font-weight="400" font-size="21" transform="translate(974.646 392)">Lecturas sensores UR</text><text fill="#00B050" font-family="Aptos,Aptos_MSFontService,sans-serif" font-weight="400" font-size="21" transform="translate(938.646 418)">(2)</text><text fill="#00B050" font-family="Aptos,Aptos_MSFontService,sans-serif" font-weight="400" font-size="21" transform="translate(974.646 418)">Datos termopar</text><text fill="#00B050" font-family="Aptos,Aptos_MSFontService,sans-serif" font-weight="400" font-size="21" transform="translate(938.646 443)">(3)</text><text fill="#00B050" font-family="Aptos,Aptos_MSFontService,sans-serif" font-weight="400" font-size="21" transform="translate(974.646 443)">Sensor laser</text><text fill="#FF0000" font-family="Aptos,Aptos_MSFontService,sans-serif" font-weight="700" font-size="21" transform="translate(938.646 486)">ACTUADORES</text><text fill="#FF0000" font-family="Aptos,Aptos_MSFontService,sans-serif" font-weight="400" font-size="21" transform="translate(938.646 511)">(1)</text><text fill="#FF0000" font-family="Aptos,Aptos_MSFontService,sans-serif" font-weight="400" font-size="21" transform="translate(974.646 511)">Movimiento UR</text><text fill="#FF0000" font-family="Aptos,Aptos_MSFontService,sans-serif" font-weight="400" font-size="21" transform="translate(938.646 537)">(2)</text><text fill="#FF0000" font-family="Aptos,Aptos_MSFontService,sans-serif" font-weight="400" font-size="21" transform="translate(974.646 537)">Control cartucho</text><text fill="#FF0000" font-family="Aptos,Aptos_MSFontService,sans-serif" font-weight="400" font-size="21" transform="translate(938.646 562)">(3)</text><text fill="#FF0000" font-family="Aptos,Aptos_MSFontService,sans-serif" font-weight="400" font-size="21" transform="translate(974.646 562)">Arranque extrusor</text></g></svg>